<mxfile host="app.diagrams.net" modified="2023-09-13T11:45:53.537Z" agent="Mozilla/5.0 (Windows NT 10.0; Win64; x64) AppleWebKit/537.36 (KHTML, like Gecko) Chrome/105.0.0.0 Safari/537.36" version="21.7.2" etag="L8EEpPND2qKpbmt6ILJN" type="github">
  <diagram name="第 1 页" id="nwHw4xlcBTsqVP0uiZue">
    <mxGraphModel>
      <root>
        <mxCell id="0" />
        <mxCell id="1" parent="0" />
      </root>
    </mxGraphModel>
  </diagram>
</mxfile>
